<?xml version="1.0" encoding="UTF-8"?>
<svg xmlns="http://www.w3.org/2000/svg" version="1.1" viewBox="0 0 34.4 32">
  <defs>
    <style>
      .cls-1 {
        fill: #313131;
      }

      .cls-2 {
        fill: #363636;
      }

      .cls-3 {
        fill: #fdfdfd;
      }
    </style>
  </defs>
  <!-- Generator: Adobe Illustrator 28.6.0, SVG Export Plug-In . SVG Version: 1.1.0 Build 92)  -->
  <g>
    <g id="Layer_1">
      <g>
        <path class="cls-2" d="M24.8.6c-2.3,0-3.4,1.7-2.5,1.8.4,0,.4-.5.5-.6.2,0,.6.5,1-.6.7.4,1.5,0,2.4.4,1.2,1.4,3.4,2.1,5.3,2.4.3,1,1,.7,1.1.8.4.5-.6,1.1-.3,1.2.7.2,1.5-.3,1.2-1.4-.4-1.4-3.4-1.5-4.6-2-1.5-.6-2.2-2-4-2Z"/>
        <path class="cls-2" d="M20,1.2c-.4,0-1,0-.9.5,0,1,4.5,1.7-2.4,2.1-1.8,2.4,2.6,2.7,4.2,2,.4,1.7-.7,2.6-2,3.6-.7-.2-2.6-.1-2.7.7-.2,1.3,2-.8,2.5,0,0,0-.3.3-.1.5.4.5.5-.5.7-.7.4-.4,1-.5,1.4-.9,0,0,0-.7.2-.8,0-.1,1.5,0,.6-1.9.6-.2.5-.5.4-1.1,3.7-2.7-3.5.7-4.9-.7v-.3q2.4-.2,4.7-.5c-.3-.6.3-1.4,0-2-.1-.3-1.6-.8-1.8-.8Z"/>
        <path class="cls-2" d="M27.1,3.8c-.9,0-.6,1,0,1,.9,0,.6-1,0-1Z"/>
        <path class="cls-2" d="M24.3,13.3c.2,0,.8-.4.8.4-2.3,1.7-1.6,3-2.1,3.6-.6.7-3.1,1-3.2,1.3-.2,1,1.8.1,2,.3-.5,2.9,1.2,4.6.6,7,1.4,2.6.9,3.8.3,2.7-.4-.7-1.4-6.1-2.9-9.2-.1-.2-.5-.2-.6-.3-.1-.3,0-2.5-.8-1.9-.2.2-.4,5-.8,5.7l.8,7.7c-1.9.1-1.1-3.6-1.6-6.5-.2-1.2-.9-3.4-1.2-4.9,0-.1-.4,0-.4,0h-.4c1.8,5.4,1.6,11.2,2.2,11.9.5.6,3.7,1.6,3.2-.2,0-.3-2.4-1.4-1.1-5.6-.9-3.1,0-6.2.6-4.9,1.2,2.7,2,11.4,5.2,9.7.8-.4-1.3-1.9-1.6-4.2.5-1.7-1.2-6.2-.6-7.5.2-.4,1.4-.3,1.7-2.9,3.1-1.6.6-6.1,3-7.8,1-.7,3,.3,4.3-.1.9-.3,1.4-1.5-1-1.4,2.9-.5-.7-1.3-.9-.2-.2.8,1.6.9,1.1,1.2-3.4-.9-4.4.2-5,.2-.2,0-.7-.4-.8-.4-2.3-.2.9,1.2,1,1.4-.8,1-.8,2.3-.9,2.4-.4.3-2.6-.3-1.9,1.1,0-.8,1.9.1,1.9.2.4,1.1-4.5-.4-.9,1.4Z"/>
        <path class="cls-1" d="M14.4,17.8c0,0-1,0-1.1,0-.3.1-.9,4.3-.5,6,.4,1.9,4,5.9,3.3,6.5-4,.3-4.4-4.3-6.2-6.8-.2-1,0-2.2-.6-2.9-1.9,5.3,1.2,7.6,1.6,9,.7,2.7-2.8,1.2-3.2.7-.5-.7-1.3-4.4-1.9-5.7-1,.4-1.9.3-2.9.4C0,20.6,2.4,16.4,2.4,15.9c0-.5-.6-1-.2-2,0-.2,2.8-3.8,3.1-4,1-.8,3.8-1.9,5-1.7.5,0,2.5,1.4,3.4,1.5.2,0,3.8-.1,1.9.7-.6.2-1.7-.4-3.6,1.2-2.1-1,1.3-1.9-1.2-2.5-2.2-.5-2.4,1.1-.5.6.2.5.4.6.6,1.1-.2,0-.4,0-.5,0-1.8.4-1-.2-1.3-.5-.4-.3-1-.3-1.3-.6-.3.3-.4,0-.5,0-4.9,1.7,1.7,9.3-.6,13.2l1.6,6.4c.6.9,1.6.1,1.6,0,0-.3-2.2-3.2-2.1-6.3,0-.7,1.7-5.2,1.8-7.2l.4-.3c.7,1.1,4.6,2.2,5.5.8.5.3-.5,1.3-.2,2.8h-.4c-.1-.5,0-1.1-.4-1.3ZM3,14.3c.4,1.1.5,2.8-.5,3.5.7,1.1-.6,1.3.6,2.5-1.2.4,0,3.7.7,3.8,2.8.6,1.4-3.6.3-4.6.7-1.3.3-2.8,1-3.9l-.8-3.1c-.4,1-.4,1.1-1.3,1.8ZM5.8,21.2c.8.8.7-2.5-.3-3.7-.6.9,0,3.3.3,3.7ZM11.2,22.9c0,.5,1.7,5.2,2.2,5.6.7.6,1.3.4,1.2-.1,0-.4-2.6-2.7-2.9-6.7-.2.2-.5,1.1-.5,1.2Z"/>
        <path class="cls-2" d="M10.3,10.9c.3,1.4,1.1,1.8.5,0-.2,0-.4,0-.5,0Z"/>
        <path class="cls-3" d="M4.3,12.5c-.4,1-.4,1.1-1.3,1.8.4,1.1.5,2.8-.5,3.5.7,1.1-.6,1.3.6,2.5-1.2.4,0,3.7.7,3.8,2.8.6,1.4-3.6.3-4.6.7-1.3.3-2.8,1-3.9l-.8-3.1Z"/>
        <path class="cls-3" d="M5.6,17.5c-.6.9,0,3.3.3,3.7.8.8.7-2.5-.3-3.7Z"/>
        <path class="cls-3" d="M11.7,21.7c-.2.2-.5,1.1-.5,1.2,0,.5,1.7,5.2,2.2,5.6.7.6,1.3.4,1.2-.1,0-.4-2.6-2.7-2.9-6.7Z"/>
      </g>
    </g>
  </g>
</svg>