<svg xmlns="http://www.w3.org/2000/svg" xmlns:xlink="http://www.w3.org/1999/xlink" version="1.1" width="256" height="256" viewBox="0 0 256 256" xml:space="preserve">

<defs>
</defs>
<g style="stroke: none; stroke-width: 0; stroke-dasharray: none; stroke-linecap: butt; stroke-linejoin: miter; stroke-miterlimit: 10; fill: none; fill-rule: nonzero; opacity: 1;" transform="translate(1.4065934065934016 1.4065934065934016) scale(2.81 2.81)" >
	<path d="M 45 90 c -11.529 0 -23.058 -4.388 -31.835 -13.165 c -17.554 -17.553 -17.554 -46.115 0 -63.669 c 17.554 -17.554 46.116 -17.554 63.669 0 c 17.554 17.554 17.554 46.116 0 63.669 C 68.058 85.612 56.529 90 45 90 z M 45 12 c -8.455 0 -16.909 3.218 -23.345 9.654 c -12.873 12.873 -12.873 33.818 0 46.691 c 12.873 12.871 33.818 12.872 46.691 0 c 12.872 -12.873 12.872 -33.819 0 -46.691 C 61.909 15.218 53.454 12 45 12 z" style="stroke: none; stroke-width: 1; stroke-dasharray: none; stroke-linecap: butt; stroke-linejoin: miter; stroke-miterlimit: 10; fill: rgb(226,57,57); fill-rule: nonzero; opacity: 1;" transform=" matrix(1 0 0 1 0 0) " stroke-linecap="round" />
	<rect x="5.98" y="39" rx="0" ry="0" width="78.04" height="12.01" style="stroke: none; stroke-width: 1; stroke-dasharray: none; stroke-linecap: butt; stroke-linejoin: miter; stroke-miterlimit: 10; fill: rgb(226,57,57); fill-rule: nonzero; opacity: 1;" transform=" matrix(0.7071 -0.7071 0.7071 0.7071 -18.6396 45.0037) "/>
</g>
</svg>